<svg width="72" height="72" viewBox="-14 0 72 72" fill="none" xmlns="http://www.w3.org/2000/svg">
<path d="M2.41484 71.3C1.88151 71.3 1.41484 71.2 1.01484 71C0.614844 70.7333 0.414844 70.4 0.414844 70C0.414844 69.4667 0.581511 69.0667 0.914844 68.8C1.31484 68.5333 1.81484 68.3333 2.41484 68.2C4.14818 67.6667 5.28151 67.1333 5.81484 66.6C6.41484 66.0667 6.71484 65.2 6.71484 64V35.7C6.04818 35.7 5.28151 35.7 4.41484 35.7C3.54818 35.6333 2.58151 35.5667 1.51484 35.5C1.18151 35.4333 0.848177 35.1 0.514844 34.5C0.248177 33.9 0.114844 33.3667 0.114844 32.9C0.114844 32.7 0.214844 32.5333 0.414844 32.4C0.614844 32.2667 0.78151 32.1667 0.914844 32.1C1.91484 31.6333 2.84818 31.2 3.71484 30.8C4.64818 30.4 5.64818 29.9667 6.71484 29.5C6.84818 23.9667 7.71484 19.3333 9.31484 15.6C10.9815 11.8667 13.0482 8.9 15.5148 6.7C17.9815 4.43333 20.5815 2.83333 23.3148 1.9C26.1148 0.899997 28.7148 0.399997 31.1148 0.399997C35.3815 0.399997 38.4815 1.03333 40.4148 2.3C42.4148 3.5 43.4148 5.26666 43.4148 7.6C43.4148 9.06666 43.0815 10.2333 42.4148 11.1C41.7482 11.9 40.8482 12.3 39.7148 12.3C39.1148 12.3 38.5148 12.0667 37.9148 11.6C37.3815 11.0667 36.7815 10.4 36.1148 9.6C35.0482 8.53333 33.7815 7.46666 32.3148 6.4C30.9148 5.33333 29.1148 4.79999 26.9148 4.79999C24.1148 4.79999 21.8815 6.03333 20.2148 8.5C18.6148 10.9667 17.8148 14.8 17.8148 20V28.5C17.8148 28.9667 17.9482 29.3 18.2148 29.5C18.4815 29.6333 18.8148 29.7 19.2148 29.7H30.9148C31.3815 29.7 31.7482 29.8667 32.0148 30.2C32.2815 30.4667 32.4148 30.8 32.4148 31.2C32.4148 31.7333 32.3482 32.3333 32.2148 33C32.0815 33.6 31.8815 34.1 31.6148 34.5C31.3482 35.0333 31.0815 35.3 30.8148 35.3H20.8148C19.6148 35.3 18.8148 35.4667 18.4148 35.8C18.0148 36.0667 17.8148 36.5667 17.8148 37.3V62.9C17.8148 64.5 18.2148 65.6667 19.0148 66.4C19.8148 67.0667 21.5815 67.6333 24.3148 68.1C25.7148 68.3667 26.4148 68.9667 26.4148 69.9C26.4148 70.3 26.2482 70.6333 25.9148 70.9C25.5815 71.1667 25.1482 71.3 24.6148 71.3C22.6148 71.3 20.5148 71.2 18.3148 71C16.1148 70.8667 14.1482 70.8 12.4148 70.8C11.2815 70.8 10.2148 70.8333 9.21484 70.9C8.21484 70.9667 7.14818 71.0333 6.01484 71.1C4.94818 71.2333 3.74818 71.3 2.41484 71.3Z" fill="black"/>
</svg>
